# xmcd CD database file
#
# Track frame offsets:
#	195
#	15822
#	26782
#	37682
#	49877
#	64987
#	78920
#	92402
#	103692
#	116857
#	128515
#
# Disc length: 1910 seconds
#
# Revision: 0
# Processed by: cddbd v1.5.2PL0 Copyright (c) Steve Scherf et al.
# Submitted via: CDex 1.51
#
DISCID=7d07740b
DTITLE=Kimberley Summers - Kimberley Summers
DYEAR=1991
DGENRE=Country
TTITLE0=Daddy Don't Live In Heaven
TTITLE1=Are You Wasting My Time
TTITLE2=Walkin' And Talkin'
TTITLE3=Easy Lovin' You
TTITLE4=Family
TTITLE5=If Anybody Had A Heart
TTITLE6=Lost Without You
TTITLE7=Love Letters In The Sand
TTITLE8=Dallas
TTITLE9=Shakin' Your Tree
TTITLE10=Hometown
EXTD=YEAR: 1991
EXTT0=
EXTT1=
EXTT2=
EXTT3=
EXTT4=
EXTT5=
EXTT6=
EXTT7=
EXTT8=
EXTT9=
EXTT10=
PLAYORDER=
